<?xml version="1.0" encoding="iso-8859-1"?>
<!-- Generator: Adobe Illustrator 19.0.0, SVG Export Plug-In . SVG Version: 6.00 Build 0)  -->
<svg version="1.1" id="Capa_1" xmlns="http://www.w3.org/2000/svg" xmlns:xlink="http://www.w3.org/1999/xlink" x="0px" y="0px"
	 viewBox="0 0 480.035 480.035" style="enable-background:new 0 0 480.035 480.035;" xml:space="preserve">
<g>
	<g>
		<path d="M438.089,426.792l-46.072-53.752V168c-0.133-80.751-63.362-147.314-144-151.592V8c0-4.418-3.582-8-8-8s-8,3.582-8,8v8.408
			C151.38,20.686,88.15,87.249,88.017,168v205.04l-46.072,53.752c-2.876,3.354-2.489,8.404,0.865,11.281
			c1.45,1.244,3.297,1.927,5.207,1.927h138.4c8.772,29.602,39.881,46.489,69.484,37.716c18.146-5.377,32.339-19.57,37.716-37.716
			h138.4c4.418,0,8-3.582,7.999-8.001C440.017,430.089,439.333,428.242,438.089,426.792z M240.017,464
			c-15.925,0.064-30.352-9.379-36.664-24h73.328C270.368,454.619,255.942,464.062,240.017,464z M65.409,424l36.68-42.792
			c1.244-1.45,1.928-3.297,1.928-5.208V168c0-75.111,60.889-136,136-136s136,60.889,136,136v208c0,1.911,0.684,3.758,1.928,5.208
			L414.625,424H65.409z"/>
	</g>
</g>
<g>
</g>
<g>
</g>
<g>
</g>
<g>
</g>
<g>
</g>
<g>
</g>
<g>
</g>
<g>
</g>
<g>
</g>
<g>
</g>
<g>
</g>
<g>
</g>
<g>
</g>
<g>
</g>
<g>
</g>
</svg>
