<?xml version="1.0"?>
<svg xmlns="http://www.w3.org/2000/svg" xmlns:xlink="http://www.w3.org/1999/xlink" version="1.1" id="Capa_1" x="0px" y="0px" viewBox="0 0 512 512" style="enable-background:new 0 0 512 512;" xml:space="preserve" width="512px" height="512px" class=""><g><g>
	<g>
		<path d="M391.601,272.199c-15.901,0-31.201-4.499-45-12.299c-13.5,7.8-28.801,12.299-45,12.299c-15.901,0-31.201-4.499-45-12.299    c-13.5,7.8-28.801,12.299-45,12.299c-15.901,0-31.201-4.499-45-12.299c-13.5,7.8-28.801,12.299-45,12.299    c-23.101,0-44.402-8.699-60.601-23.699v53.5h390v-52.301C435.099,263.801,414.101,272.199,391.601,272.199z" data-original="#000000" class="active-path" data-old_color="#1C5F70" fill="#444444"/>
	</g>
</g><g>
	<g>
		<path d="M466.001,332.001H46c-8.401,0-15,6.599-15,15v16.199c0,33.001,25.499,60,57.001,60c16.8,0,31.8-7.8,42.299-19.499    c10.201,11.699,25.201,19.499,42.001,19.499c16.5,0,31.5-7.5,41.999-19.499c10.501,11.999,25.501,19.499,42.001,19.499    c16.8,0,31.8-7.8,42.299-19.499c10.201,11.699,25.201,19.499,42.001,19.499c16.5,0,31.5-7.5,41.999-19.499    c10.501,11.999,25.501,19.499,42.001,19.499c31.642,0,56.4-29.398,56.4-51.899v-24.3    C481.001,338.6,474.402,332.001,466.001,332.001z" data-original="#000000" class="active-path" data-old_color="#1C5F70" fill="#444444"/>
	</g>
</g><g>
	<g>
		<path d="M497,482.001h-16v-50.4c-15.3,13.499-35.099,21.599-56.4,21.599c-14.7,0-29.099-4.2-42.001-11.4    c-12.9,7.2-27.299,11.4-41.999,11.4c-15,0-29.399-4.2-42.001-11.4c-12.9,7.2-27.299,11.4-42.299,11.4    c-14.7,0-29.101-4.2-42.001-11.4c-12.9,7.2-27.299,11.4-41.999,11.4c-15,0-29.401-4.2-42.001-11.4    c-12.9,7.2-27.299,11.4-42.299,11.4c-21.901,0-41.7-8.399-57.001-22.2v51H15c-8.291,0-15,6.709-15,15c0,8.291,6.709,15,15,15    c399.106,0,272.635,0,482,0c8.291,0,15-6.709,15-15C512,488.709,505.291,482.001,497,482.001z" data-original="#000000" class="active-path" data-old_color="#1C5F70" fill="#444444"/>
	</g>
</g><g>
	<g>
		<path d="M133.9,7.201c-2.699-4.501-7.5-7.2-12.9-7.2s-10.201,2.699-12.9,7.2c-9.9,16.8-16.8,46.3-17.1,53.8c0,16.5,13.5,30,30,30    s30-13.5,30-30.3C150.7,53.501,143.8,24.001,133.9,7.201z" data-original="#000000" class="active-path" data-old_color="#1C5F70" fill="#444444"/>
	</g>
</g><g>
	<g>
		<path d="M436,151.001h-15v-30c0-2.692-0.866-5.107-1.531-7.59c-8.509,4.697-18.113,7.59-28.469,7.59    c-10.362,0-19.969-2.877-28.482-7.518c-0.654,2.461-1.518,4.85-1.518,7.518v30h-75v-30c0-2.692-0.866-5.107-1.531-7.59    c-8.509,4.697-18.113,7.59-28.469,7.59c-10.362,0-19.969-2.877-28.482-7.518c-0.654,2.461-1.518,4.85-1.518,7.518v30h-75v-30    c0-2.692-0.866-5.107-1.531-7.59c-8.509,4.697-18.113,7.59-28.469,7.59c-10.362,0-19.969-2.877-28.482-7.518    c-0.654,2.461-1.518,4.85-1.518,7.518v30H76c-8.401,0-15,6.599-15,15v24.6c0,3.3,4.574,12.962,5.336,14.733    c9.258,21.502,30.597,36.866,55.265,36.866c17.999,0,34.199-8.101,45-20.4c11.1,12.299,27.299,20.4,45,20.4    c17.999,0,34.199-8.101,45-20.4c11.1,12.299,27.299,20.4,45,20.4c17.999,0,34.199-8.101,45-20.4c11.1,12.299,27.299,20.4,45,20.4    c29.099,0,54-20.7,59.099-49.2c0.3-0.899,0.3-1.8,0.3-2.699v-24.3C451,157.6,444.401,151.001,436,151.001z" data-original="#000000" class="active-path" data-old_color="#1C5F70" fill="#444444"/>
	</g>
</g><g>
	<g>
		<path d="M268.9,7.201c-2.699-4.501-7.5-7.2-12.9-7.2c-5.4,0-10.201,2.699-12.9,7.2c-9.9,16.8-16.8,46.3-17.1,53.8    c0,16.5,13.5,30,30,30s30-13.5,30-30.3C285.7,53.501,278.8,24.001,268.9,7.201z" data-original="#000000" class="active-path" data-old_color="#1C5F70" fill="#444444"/>
	</g>
</g><g>
	<g>
		<path d="M403.9,7.201c-2.699-4.501-7.5-7.2-12.9-7.2c-5.4,0-10.201,2.699-12.9,7.2c-9.9,16.8-16.8,46.3-17.1,53.8    c0,16.5,13.5,30,30,30s30-13.5,30-30.3C420.7,53.501,413.8,24.001,403.9,7.201z" data-original="#000000" class="active-path" data-old_color="#1C5F70" fill="#444444"/>
	</g>
</g></g> </svg>
