<svg xmlns="http://www.w3.org/2000/svg" viewBox="263 -404 20 20.9">
  <defs>
    <style>
      .cls-1 {
        fill: #2290ff;
      }
    </style>
  </defs>
  <g id="Group_1" data-name="Group 1">
    <path id="Rectangle_1" data-name="Rectangle 1" class="cls-1" d="M1,0H15a1,1,0,0,1,1,1V11a0,0,0,0,1,0,0H0a0,0,0,0,1,0,0V1A1,1,0,0,1,1,0Z" transform="translate(263 -404)"/>
    <path id="Path_1" data-name="Path 1" class="cls-1" d="M262-384.9v6.8l4-6.8Z" transform="translate(1 -9)"/>
    <path id="Rectangle_2" data-name="Rectangle 2" class="cls-1" d="M1,0H15a1,1,0,0,1,1,1V11a0,0,0,0,1,0,0H0a0,0,0,0,1,0,0V1A1,1,0,0,1,1,0Z" transform="translate(263 -404)"/>
    <path id="Path_2" data-name="Path 2" class="cls-1" d="M262-384.9v6.8l4-6.8Z" transform="translate(1 -9)"/>
  </g>
  <path id="Subtraction_1" data-name="Subtraction 1" class="cls-1" d="M19,23.9l0,0L15.53,18H3V15H16V7h2a1,1,0,0,1,1,1V23.9Z" transform="translate(264 -407)"/>
</svg>
