<?xml version="1.0"?>
<svg xmlns="http://www.w3.org/2000/svg" xmlns:xlink="http://www.w3.org/1999/xlink" version="1.1" id="Capa_1" x="0px" y="0px" viewBox="0 0 512 512" style="enable-background:new 0 0 512 512;" xml:space="preserve" width="512px" height="512px" class=""><g><g>
	<g>
		<rect x="256.003" y="255.987" width="0.001" height="0.007" data-original="#000000" class="active-path" data-old_color="#AA5A5A" fill="#444444"/>
	</g>
</g><g>
	<g>
		<path d="M409.736,40.584C403.176,17.197,381.663,0,356.209,0c-25.454,0-46.967,17.197-53.528,40.584H271v89.617h-15    c-14.107,0-25.584,11.477-25.584,25.583c0,14.107,11.477,25.584,25.584,25.584h15V241h31.686    c6.561-23.387,28.074-40.584,53.528-40.584s46.967,17.197,53.528,40.584h61.674V40.584H409.736z" data-original="#000000" class="active-path" data-old_color="#AA5A5A" fill="#444444"/>
	</g>
</g><g>
	<g>
		<path d="M471.416,302.68V271h-89.617v-15c0-14.107-11.477-25.584-25.584-25.584c-14.107,0-25.584,11.477-25.584,25.584v15h-59.628    v31.683c23.387,6.562,40.584,28.074,40.584,53.528s-17.197,46.967-40.584,53.528v61.677h200.413v-61.68    C494.803,403.175,512,381.662,512,356.208S494.803,309.241,471.416,302.68z" data-original="#000000" class="active-path" data-old_color="#AA5A5A" fill="#444444"/>
	</g>
</g><g>
	<g>
		<path d="M256.003,330.627h-15v-59.628H209.32c-6.561,23.387-28.074,40.584-53.528,40.584c-25.454,0-46.967-17.197-53.528-40.584    H40.585v200.417h61.68C108.826,494.803,130.339,512,155.793,512c25.454,0,46.967-17.197,53.528-40.584H241h0.003v-89.621h15    c14.108,0,25.584-11.477,25.584-25.584S270.11,330.627,256.003,330.627z" data-original="#000000" class="active-path" data-old_color="#AA5A5A" fill="#444444"/>
	</g>
</g><g>
	<g>
		<path d="M241,102.258V40.583H40.584v61.68C17.197,108.824,0,130.337,0,155.791c0,25.454,17.197,46.967,40.584,53.528v31.68h89.624    v15c0,14.107,11.477,25.584,25.584,25.584s25.584-11.477,25.584-25.584v-15H241v-31.686    c-23.387-6.561-40.584-28.074-40.584-53.528C200.416,130.331,217.613,108.819,241,102.258z" data-original="#000000" class="active-path" data-old_color="#AA5A5A" fill="#444444"/>
	</g>
</g></g> </svg>
