<svg id="Group_8" data-name="Group 8" xmlns="http://www.w3.org/2000/svg" viewBox="-386 -821 15 11">
  <defs>
    <style>
      .cls-1 {
        fill: #adadad;
      }

      .cls-2, .cls-5 {
        fill: none;
      }

      .cls-2, .cls-3 {
        stroke: #fff;
      }

      .cls-3 {
        fill: #fff;
      }

      .cls-4 {
        stroke: none;
      }
    </style>
  </defs>
  <path id="Subtraction_1" data-name="Subtraction 1" class="cls-1" d="M14,11H3A2,2,0,0,1,1,9V6.915a1.5,1.5,0,1,0,0-2.83V2A2,2,0,0,1,3,0H14a2,2,0,0,1,2,2V4.085a1.5,1.5,0,1,0,0,2.83V9A2,2,0,0,1,14,11Z" transform="translate(-387 -821)"/>
  <g id="Group_7" data-name="Group 7" transform="translate(-15 0.5)">
    <g id="Group_1" data-name="Group 1" transform="translate(-364.814 -819.5)">
      <line id="Line_1" data-name="Line 1" class="cls-2" y1="5.541" x2="1.223"/>
      <line id="Line_2" data-name="Line 2" class="cls-2" x1="1.223" y1="5.541" transform="translate(1.223)"/>
    </g>
    <g id="Group_2" data-name="Group 2" transform="matrix(0.259, 0.966, -0.966, 0.259, -360.933, -818.092)">
      <line id="Line_1-2" data-name="Line 1" class="cls-2" y1="4.895" x2="1.212" transform="translate(0.162 0.041)"/>
      <line id="Line_2-2" data-name="Line 2" class="cls-2" x1="1.537" y1="4.976" transform="translate(1.374 0.041)"/>
    </g>
    <g id="Group_3" data-name="Group 3" transform="matrix(0.259, -0.966, 0.966, 0.259, -366.881, -815.416)">
      <line id="Line_1-3" data-name="Line 1" class="cls-2" y1="4.976" x2="1.537" transform="translate(-0.162 -0.041)"/>
      <line id="Line_2-3" data-name="Line 2" class="cls-2" x1="1.212" y1="4.895" transform="translate(1.374 -0.041)"/>
    </g>
    <g id="Group_6" data-name="Group 6" transform="translate(-366.607 -818.128)">
      <g id="Group_4" data-name="Group 4" transform="translate(2.004 6.128) rotate(-145)">
        <line id="Line_1-4" data-name="Line 1" class="cls-2" y1="5.251" x2="0.971" transform="translate(0.305 0.076)"/>
        <line id="Line_2-4" data-name="Line 2" class="cls-2" x1="1.582" y1="5.404" transform="translate(1.276 0.076)"/>
      </g>
      <g id="Group_5" data-name="Group 5" transform="matrix(-0.819, 0.574, -0.574, -0.819, 6.033, 4.539)">
        <line id="Line_1-5" data-name="Line 1" class="cls-2" y1="5.404" x2="1.582" transform="translate(-0.305 -0.076)"/>
        <line id="Line_2-5" data-name="Line 2" class="cls-2" x1="0.971" y1="5.251" transform="translate(1.276 -0.076)"/>
      </g>
    </g>
    <g id="Ellipse_1" data-name="Ellipse 1" class="cls-3" transform="translate(-364.508 -817.768)">
      <ellipse class="cls-4" cx="0.948" cy="1.732" rx="0.948" ry="1.732"/>
      <ellipse class="cls-5" cx="0.948" cy="1.732" rx="0.448" ry="1.232"/>
    </g>
  </g>
</svg>
