<svg xmlns="http://www.w3.org/2000/svg" viewBox="0 0 19.5 16.61"><defs><style>.cls-1{fill:none;stroke:#000;stroke-miterlimit:10;stroke-width:0.5px;}</style></defs><title>directory</title><g id="Layer_2" data-name="Layer 2"><g id="Layer_1-2" data-name="Layer 1"><path class="cls-1" d="M2.63.75c3.17,0,4.55.79,4.62,2.63v.48H17.91a.86.86,0,0,1,.84.84V15.49a.39.39,0,0,1-.37.37H1.56a.81.81,0,0,1-.81-.81V1.69A.92.92,0,0,1,1.62.77h1m0-.5h-1A1.43,1.43,0,0,0,.25,1.69V15.05a1.31,1.31,0,0,0,1.31,1.31H18.38a.87.87,0,0,0,.87-.87h0V4.7a1.34,1.34,0,0,0-1.34-1.34H7.75C7.65.89,5.5.25,2.63.25Z"/></g></g></svg>